<svg width="680" height="680" viewBox="0 0 680 680" fill="none" xmlns="http://www.w3.org/2000/svg">
<path d="M0 320C0 207.989 0 151.984 21.7987 109.202C40.9734 71.5695 71.5695 40.9734 109.202 21.7987C151.984 0 207.99 0 320 0H360C472.01 0 528.016 0 570.798 21.7987C608.431 40.9734 639.027 71.5695 658.201 109.202C680 151.984 680 207.99 680 320V360C680 472.01 680 528.016 658.201 570.798C639.027 608.431 608.431 639.027 570.798 658.201C528.016 680 472.01 680 360 680H320C207.989 680 151.984 680 109.202 658.201C71.5695 639.027 40.9734 608.431 21.7987 570.798C0 528.016 0 472.01 0 360V320Z" fill="black"/>
<rect width="560" height="560" transform="translate(60 60)" fill="black"/>
<path fill-rule="evenodd" clip-rule="evenodd" d="M250 250H180L100 340L180 430H250L170 340L250 250Z" fill="white"/>
<path fill-rule="evenodd" clip-rule="evenodd" d="M430 250H500L580 340L500 430H430L510 340L430 250Z" fill="white"/>
<path fill-rule="evenodd" clip-rule="evenodd" d="M304.985 313.633C307.693 309.914 311.568 307.133 315.958 305.758C318.713 304.894 321.557 304.825 324.772 305.121C327.902 305.409 331.719 306.082 336.48 306.922L353.685 309.956C358.481 310.801 362.325 311.479 365.384 312.285C368.526 313.112 371.19 314.157 373.492 315.926C377.158 318.743 379.846 322.711 381.101 327.161C381.889 329.955 381.871 332.818 381.473 336.044C381.086 339.185 380.289 343.008 379.294 347.779L379.258 347.952C364.016 421.041 353.291 460.617 341.346 498.536L341.317 498.629C331.136 530.951 323.466 555.3 317.633 571.864C314.719 580.142 312.22 586.601 310.058 591.181C308.98 593.465 307.93 595.403 306.891 596.903C305.949 598.263 304.629 599.852 302.821 600.62C296.445 603.329 289.296 602.072 284.227 597.35C282.79 596.011 282.091 594.069 281.67 592.47C281.205 590.706 280.879 588.528 280.645 586.016C280.175 580.976 280.029 574.059 280.114 565.292C280.282 547.749 281.378 522.271 282.834 488.45L282.838 488.351C284.555 448.457 288.221 407.617 299.493 333.632L299.52 333.458C300.248 328.676 300.832 324.842 301.561 321.783C302.31 318.641 303.285 315.967 304.985 313.633Z" fill="white"/>
<path fill-rule="evenodd" clip-rule="evenodd" d="M381.823 221.989C384.015 223.507 385.722 225.627 386.737 228.093C387.398 229.699 387.616 231.331 387.678 233.035C387.737 234.655 387.657 236.61 387.564 238.917L386.283 270.509C386.164 273.464 386.064 275.934 385.811 277.929C385.548 280.003 385.079 281.971 383.976 283.763C382.312 286.465 379.769 288.513 376.774 289.562C374.788 290.257 372.765 290.295 370.683 290.109C368.679 289.931 366.245 289.501 363.333 288.988L333.446 283.718C330.534 283.205 328.099 282.775 326.156 282.258C324.136 281.721 322.248 280.993 320.619 279.66C318.164 277.65 316.475 274.856 315.835 271.748C315.411 269.687 315.644 267.677 316.106 265.638C316.551 263.677 317.302 261.321 318.2 258.504L327.802 228.379C328.503 226.179 329.097 224.315 329.706 222.813C330.347 221.233 331.11 219.774 332.281 218.491C334.078 216.521 336.407 215.112 338.986 214.436C340.667 213.995 342.313 213.997 344.01 214.164C345.623 214.322 347.55 214.662 349.824 215.063L371.424 218.871C373.698 219.272 375.625 219.612 377.195 220.015C378.846 220.439 380.394 221 381.823 221.989Z" fill="white"/>
<path d="M410.007 168.419C406.373 189.03 386.718 202.792 366.107 199.158C351.865 196.646 340.893 186.485 336.671 173.645C336.615 173.475 336.554 173.291 336.486 173.094C332.973 162.093 332.002 150.102 334.147 137.941C340.338 102.827 370.443 77.9365 404.759 77.0629C401.826 83.0894 399.674 89.6198 398.452 96.5483C395.32 114.311 398.833 131.709 407.205 146.191C407.207 146.196 407.21 146.201 407.212 146.206C407.213 146.209 407.215 146.212 407.216 146.215C410.263 152.932 411.384 160.607 410.007 168.419Z" fill="#F35B51"/>
</svg>
